<svg width="22" height="22" viewBox="0 0 22 22" fill="none" xmlns="http://www.w3.org/2000/svg">
<path d="M1.83398 13.75H16.959C18.7282 13.75 20.1673 15.1892 20.1673 16.9583C20.1673 18.7275 18.7282 20.1667 16.959 20.1667C15.1898 20.1667 13.7507 18.7275 13.7507 16.9583V16.5" stroke="#828282" stroke-width="1.5" stroke-miterlimit="10" stroke-linecap="round" stroke-linejoin="round"/>
<path d="M1.83398 11.0002H16.959C18.719 11.0002 20.1673 9.561 20.1673 7.79183C20.1673 6.03183 18.719 4.5835 16.959 4.5835C16.1088 4.58591 15.2942 4.92471 14.693 5.52587C14.0919 6.12702 13.7531 6.94167 13.7507 7.79183V8.25016" stroke="#828282" stroke-width="1.5" stroke-miterlimit="10" stroke-linecap="round" stroke-linejoin="round"/>
<path d="M1.83398 8.25003H8.53482C9.02251 8.25003 9.49926 8.10541 9.90476 7.83446C10.3103 7.56351 10.6263 7.1784 10.8129 6.72783C10.9996 6.27726 11.0484 5.78146 10.9533 5.30313C10.8581 4.82481 10.6233 4.38544 10.2784 4.04059C9.93357 3.69573 9.4942 3.46089 9.01588 3.36574C8.53755 3.2706 8.04176 3.31943 7.59118 3.50606C7.14061 3.69269 6.7555 4.00875 6.48455 4.41425C6.2136 4.81975 6.06898 5.2965 6.06898 5.78419V6.13253" stroke="#828282" stroke-width="1.5" stroke-miterlimit="10" stroke-linecap="round" stroke-linejoin="round"/>
</svg>
