<svg width="22" height="22" viewBox="0 0 22 22" fill="none" xmlns="http://www.w3.org/2000/svg">
<path d="M14.2168 2.59424H7.78185C5.49935 2.59424 4.99518 3.73091 4.70185 5.12424L3.66602 10.0834H18.3327L17.2969 5.12424C17.0035 3.73091 16.4993 2.59424 14.2168 2.59424V2.59424Z" stroke="#828282" stroke-width="1.5" stroke-linecap="round" stroke-linejoin="round"/>
<path d="M20.157 18.1685C20.2578 19.241 19.3962 20.1668 18.2962 20.1668H16.5728C15.5828 20.1668 15.4453 19.7452 15.2712 19.2227L15.0878 18.6727C14.8312 17.921 14.6662 17.4168 13.3462 17.4168H8.65285C7.33285 17.4168 7.14035 17.9852 6.91118 18.6727L6.72785 19.2227C6.55368 19.7452 6.41618 20.1668 5.42618 20.1668H3.70285C2.60285 20.1668 1.74118 19.241 1.84201 18.1685L2.35535 12.586C2.48368 11.211 2.74951 10.0835 5.15118 10.0835H16.8478C19.2495 10.0835 19.5153 11.211 19.6437 12.586L20.157 18.1685Z" stroke="#828282" stroke-width="1.5" stroke-linecap="round" stroke-linejoin="round"/>
<path d="M3.66667 7.3335H2.75" stroke="#828282" stroke-width="1.5" stroke-linecap="round" stroke-linejoin="round"/>
<path d="M19.2487 7.3335H18.332" stroke="#828282" stroke-width="1.5" stroke-linecap="round" stroke-linejoin="round"/>
<path d="M11 2.75V4.58333" stroke="#828282" stroke-width="1.5" stroke-linecap="round" stroke-linejoin="round"/>
<path d="M9.625 4.5835H12.375" stroke="#828282" stroke-width="1.5" stroke-linecap="round" stroke-linejoin="round"/>
<path d="M5.5 13.75H8.25" stroke="#828282" stroke-width="1.5" stroke-linecap="round" stroke-linejoin="round"/>
<path d="M13.75 13.75H16.5" stroke="#828282" stroke-width="1.5" stroke-linecap="round" stroke-linejoin="round"/>
</svg>
