<svg width="22" height="22" viewBox="0 0 22 22" fill="none" xmlns="http://www.w3.org/2000/svg">
<path d="M6.85547 16.8208L9.69714 19.0208C10.0638 19.3874 10.8888 19.5708 11.4388 19.5708H14.9221C16.0221 19.5708 17.2138 18.7458 17.4888 17.6458L19.6888 10.9541C20.1471 9.67076 19.3221 8.57076 17.9471 8.57076H14.2805C13.7305 8.57076 13.2721 8.11243 13.3638 7.47076L13.8221 4.53743C14.0055 3.71243 13.4555 2.79576 12.6305 2.52076C11.8971 2.24576 10.9805 2.61243 10.6138 3.16243L6.85547 8.7541" stroke="#828282" stroke-width="1.5" stroke-miterlimit="10"/>
<path d="M2.18164 16.8207V7.83737C2.18164 6.55404 2.73164 6.0957 4.01497 6.0957H4.93164C6.21497 6.0957 6.76497 6.55404 6.76497 7.83737V16.8207C6.76497 18.104 6.21497 18.5624 4.93164 18.5624H4.01497C2.73164 18.5624 2.18164 18.104 2.18164 16.8207Z" stroke="#828282" stroke-width="1.5" stroke-linecap="round" stroke-linejoin="round"/>
</svg>
